<svg xmlns="http://www.w3.org/2000/svg" width="104" height="104" viewBox="0 0 104 104">
    <g fill="none" fill-rule="evenodd">
        <g fill-rule="nonzero">
            <g>
                <path fill="#343534" d="M88.35 73.307c2.124 2.864 1.905 6.041-.507 9.026l-.074.09-.16.194-26.957 18.81c-2.406 1.712-4.682 2.604-6.844 2.604-1.915 0-3.935-.403-6.057-1.197l-.12-.046-2.745-.824-2.298-.686-2.158-.64-1.738-.511-1.634-.478-1.282-.372-1.673-.48-1.108-.316-1.035-.291-1.147-.318-.875-.24-.648-.173-.455-.12-.288-.076-.411-.106-.385-.098-.358-.088-.331-.08-.305-.072-.279-.063-.171-.037-.16-.034-.146-.029-.137-.026c-.276-.05-.563-.093-.86-.128-1.368-.161-2.85-.155-4.286-.038v3.474c0 1.01-.818 1.828-1.827 1.828H4.875c-1.01 0-1.828-.819-1.828-1.829V73.734c0-1.01.818-1.828 1.828-1.828h14.016c1.01 0 1.828.819 1.828 1.828V75.4c1.304.217 2.663.14 3.904-.381.233-.098.46-.21.68-.34l.326-.19.473-.272.307-.174.447-.251.29-.161.285-.155.14-.076.277-.148c.045-.024.09-.049.136-.072l.27-.141.134-.07.264-.134.261-.13.259-.126.256-.123.254-.12.127-.057.252-.115.252-.11.251-.109.252-.105.252-.104c2.313-.932 4.486-1.43 6.623-1.43l.18.001.187.005.195.009c.133.006.27.015.414.026l.218.019.226.022c.076.007.154.016.233.025l.241.028.25.032.256.035.265.039.272.042.28.045.287.049.296.052.303.055.155.029.315.06.323.064.33.067.34.07.172.037.35.076.358.078.366.083.375.085.382.09.39.092.397.095.406.1.414.102.422.106.43.109.438.112.445.116.454.12.462.122.47.126.478.13.732.2.498.138.507.14.774.219.793.226.811.233.552.16.841.246.285.083c.077.023.151.05.224.083 2.531 1.12 4.125 2.764 4.697 4.796l18.86-8.971.16-.044c3.253-.875 6.088.158 8.15 2.94zm-6.956.53l-.094.022-20.224 9.621c-.053.186-.112.373-.177.562-1.437 4.175-4.638 5.817-8.878 4.582l-.105-.032-11.927-3.386c-.954-.27-1.515-1.25-1.273-2.206l.014-.052c.27-.954 1.25-1.515 2.206-1.273l.052.014 11.934 3.388.186.055.075.021.15.04.145.036.143.032c1.954.419 3.039-.254 3.768-2.26l.053-.148.049-.148c.693-2.148.099-3.51-2.098-4.594l-.152-.074-.134-.061-.948-.278-.777-.225-.76-.218-.743-.21-.486-.137-.48-.134-.703-.195-.687-.188-.67-.18-.652-.174-.843-.221-.41-.106-.601-.153-.584-.146-.38-.094-.372-.09-.543-.13-.526-.122-.341-.078-.497-.111-.322-.07-.314-.067-.306-.064-.298-.06-.29-.059-.422-.08-.27-.05-.264-.047-.255-.044-.368-.06-.236-.035-.227-.033-.22-.03-.107-.013-.208-.025-.1-.012-.197-.02-.095-.009-.184-.015-.176-.013-.168-.01c-.027 0-.054-.002-.08-.003l-.157-.005h-.075l-.074-.001c-.89 0-1.774.104-2.699.322l-.206.05c-.414.104-.836.23-1.27.38l-.22.076-.22.08-.223.085-.112.044-.227.09c-.228.092-.46.19-.696.295l-.237.106-.24.11-.244.114-.247.119-.125.06-.252.125-.255.128-.13.066-.26.135-.265.139-.268.143-.136.073-.274.15-.28.153-.282.158-.287.162-.44.25-.298.174-.151.088c-.36.21-.73.394-1.11.553-1.759.738-3.573.91-5.318.703l-.001 13.705c1.565-.113 3.171-.108 4.714.074.372.044.735.098 1.088.162l.15.029.248.05.18.037.291.065.21.048.336.08.364.088.39.097.418.106.444.114.634.167.682.183.921.251.588.163 1.041.29.888.25.697.2 1.476.423 1.585.46 1.988.58 1.512.446 2.244.666 2.394.715 2.173.652.437.132.063.024c1.792.688 3.436 1.026 4.934 1.026 1.281 0 2.825-.595 4.629-1.86l.108-.077 26.552-18.527.023-.029c1.274-1.642 1.343-2.942.338-4.337l-.045-.06c-1.125-1.518-2.362-2.02-4.019-1.647zm-64.332 1.725H6.704V98.11h10.36V75.563zM52 21.532c13.181 0 23.867 10.685 23.867 23.866 0 13.182-10.686 23.868-23.867 23.868-13.181 0-23.867-10.686-23.867-23.868 0-13.181 10.686-23.867 23.867-23.867zm0 3.655c-11.162 0-20.21 9.05-20.21 20.211 0 11.163 9.048 20.211 20.21 20.211s20.21-9.048 20.21-20.21c0-11.163-9.048-20.212-20.21-20.212zm-.202 4.368c1.066 0 1.93.864 1.93 1.93v1.236l.058.014c3.163.807 5.408 3.637 5.459 6.918v.103c0 1.066-.863 1.93-1.929 1.93s-1.93-.864-1.93-1.93v-.065c-.035-1.84-1.537-3.32-3.384-3.32-1.87 0-3.385 1.516-3.385 3.385 0 1.87 1.515 3.385 3.385 3.385h.11c3.663.057 6.715 2.843 7.094 6.498.37 3.581-1.942 6.872-5.396 7.76l-.082.02v1.284c0 1.047-.834 1.9-1.875 1.929h-.055c-1.065 0-1.93-.863-1.93-1.929v-1.397l-.056-.017c-2.965-.943-5.007-3.68-5.054-6.807v-.097c0-1.066.863-1.93 1.929-1.93s1.93.864 1.93 1.929v.069c.037 1.688 1.313 3.096 2.998 3.292l-.036-.004.03-.004c.172-.019.346-.012.518.018l.032.006.031-.002c1.79-.098 3.194-1.58 3.195-3.374v-.065C55.35 48.477 53.845 47 52.001 47l-.109-.001c-3.581-.052-6.594-2.719-7.071-6.28-.468-3.488 1.638-6.79 4.96-7.858l.087-.027v-1.35c0-1.047.834-1.9 1.875-1.929zM39.814 7.515c.992 0 1.799.79 1.827 1.775l.001.054v7.54c0 1.009-.818 1.827-1.828 1.827-.992 0-1.799-.79-1.827-1.774l-.001-7.593c0-1.01.818-1.828 1.828-1.828zm24.375 0c.992 0 1.799.79 1.827 1.775l.001.054v7.54c0 1.009-.818 1.827-1.828 1.827-.992 0-1.799-.79-1.827-1.774l-.001-7.593c0-1.01.818-1.828 1.828-1.828zM52 0c.992 0 1.8.79 1.828 1.774l.001.054.002 15.055c0 1.01-.819 1.828-1.828 1.828-.992 0-1.8-.789-1.828-1.774v-.054l-.002-15.055C50.172.818 50.99 0 52 0z" transform="translate(-794.000000, -800.000000) translate(794.000000, 800.000000)"/>
                <path fill="#FFF" d="M82.469 36.563L62.969 36.563 62.969 54.438 82.469 54.438z" transform="translate(-794.000000, -800.000000) translate(794.000000, 800.000000)"/>
                <path fill="#C72528" d="M77.594 40.625L77.594 50.375 67.844 50.375 67.844 40.625z" transform="translate(-794.000000, -800.000000) translate(794.000000, 800.000000)"/>
            </g>
        </g>
    </g>
</svg>
