<svg xmlns="http://www.w3.org/2000/svg" width="104" height="104" viewBox="0 0 104 104">
    <g fill="none" fill-rule="evenodd">
        <g fill-rule="nonzero">
            <g>
                <path fill="#343534" d="M71.092 11.134c.128 0 .252.013.371.037h-.065c4.498 0 8.153 3.61 8.226 8.091l.001.136V61.91c6.944 2.162 11.984 8.64 11.984 16.294 0 9.423-7.639 17.063-17.062 17.063-6.627 0-12.372-3.779-15.198-9.298H25.391c-.992 0-1.8-.789-1.828-1.774v-.053l-.001-60.019H12.594c-.992 0-1.8-.79-1.828-1.774v-2.95c0-4.543 3.683-8.226 8.226-8.226h.1l52-.038zm3.455 53.663c-7.404 0-13.406 6.002-13.406 13.406 0 7.404 6.002 13.406 13.406 13.406 7.404 0 13.406-6.002 13.406-13.406 0-7.404-6.002-13.406-13.406-13.406zm8.771 7.374l.039.038c.701.701.714 1.83.037 2.547l-.037.038-9.192 9.193c-.702.7-1.83.713-2.547.037l-.039-.037-4.538-4.538c-.713-.714-.713-1.872 0-2.585.702-.702 1.83-.714 2.547-.038l.039.038 3.245 3.244 7.9-7.9c.7-.7 1.83-.713 2.546-.037zm-12.283-57.38l-45.205.032c.854 1.273 1.361 2.798 1.388 4.44v63.049h30.764c-.325-1.316-.498-2.692-.498-4.109 0-9.423 7.64-17.062 17.063-17.062.479 0 .953.02 1.422.058v-41.8c0-2.5-2.006-4.53-4.495-4.57h-.076c-.124 0-.246-.013-.363-.037zM54.03 65.407c1.01 0 1.828.819 1.828 1.828 0 .992-.79 1.8-1.774 1.828H36.36c-1.01 0-1.828-.818-1.828-1.828 0-.991.79-1.798 1.774-1.827h17.726zm12.184-8.593c1.01-.002 1.83.815 1.832 1.824.002.992-.786 1.8-1.77 1.831l-.054.001-29.86.062c-1.01.002-1.83-.814-1.832-1.824-.002-.992.786-1.8 1.77-1.831l.055-.001 29.859-.062zM52.728 21.24l.051.036 15.263 11.2c.814.596.99 1.74.392 2.555-.586.798-1.7.982-2.51.424l-.045-.032-.066-.049v11.954c0 .992-.789 1.799-1.774 1.827l-.054.001H39.522c-.992 0-1.8-.79-1.828-1.774v-.054l-.001-12.036-.177.13c-.798.587-1.915.429-2.521-.347l-.034-.044c-.586-.8-.428-1.916.348-2.522l.044-.034 15.263-11.199c.627-.46 1.473-.472 2.112-.036zm-1.03 3.777L41.35 32.61V45.5h5.146v-8.346c0-.992.79-1.799 1.774-1.827l.054-.001h6.859c.992 0 1.799.79 1.827 1.774l.001.054v8.345l5.146.001V32.692l-10.46-7.675zm1.657 13.965h-3.203v6.517h3.203v-6.517zM18.992 14.828c-2.499 0-4.53 2.006-4.57 4.495v1.143h9.14v-1.068c0-2.524-2.046-4.57-4.57-4.57z" transform="translate(-224.000000, -800.000000) translate(224.000000, 800.000000)"/>
                <path fill="#FFF" d="M87.75 4.875L68.25 4.875 68.25 24.375 87.75 24.375z" transform="translate(-224.000000, -800.000000) translate(224.000000, 800.000000)"/>
                <path fill="#C72528" d="M82.875 9.75L82.875 19.5 73.125 19.5 73.125 9.75z" transform="translate(-224.000000, -800.000000) translate(224.000000, 800.000000)"/>
            </g>
        </g>
    </g>
</svg>
