<svg xmlns="http://www.w3.org/2000/svg" width="104" height="104" viewBox="0 0 104 104">
    <g fill="none" fill-rule="evenodd">
        <g fill-rule="nonzero">
            <g>
                <path fill="#343534" d="M64.13 11.172c1.009 0 1.827.818 1.827 1.828 0 .992-.79 1.799-1.774 1.827l-.054.001h-49.3v74.344h13.405V77.797c0-.992.79-1.799 1.775-1.827l.053-.001h9.75c.992 0 1.8.79 1.828 1.774v11.429h4.063v-22.14c0-.992.79-1.8 1.774-1.828h9.804c.992 0 1.8.789 1.828 1.773v22.194h3.859V56.063c0-.991.79-1.798 1.775-1.827H67.737c-.016-.109-.026-.22-.029-.332v-.066l-.067-31.69c-.004-1.234.797-2.237 1.788-2.24.974-.005 1.77.956 1.8 2.159l.001.066.067 31.69c0 .14-.01.279-.03.413h3.28c.991 0 1.799.789 1.827 1.774l.001.053v33.11h3.25V45.297c0-.992.79-1.799 1.774-1.827l.054-.001h9.75c.992 0 1.799.79 1.827 1.774l.001.054v44.89c0 .14-.016.277-.045.408.026.112.042.23.045.351V91c0 .992-.79 1.799-1.774 1.828H13c-.992 0-1.799-.79-1.828-1.774V13c0-.992.79-1.799 1.774-1.828H64.13zm25.245 35.953h-6.094v42.047h6.094V47.125zM72.719 57.891h-6.094v31.28h6.093v-31.28zM55.453 68.859H49.36v20.313h6.094V68.859zM37.984 79.625h-6.093l-.001 9.547h6.094v-9.547zm1.22-14.219c1.009 0 1.827.819 1.827 1.828 0 .992-.79 1.8-1.774 1.828H21.531c-1.01 0-1.828-.818-1.828-1.828 0-.991.79-1.798 1.774-1.827h17.726zm12.183-8.593c1.01-.002 1.83.815 1.832 1.824.002.992-.786 1.8-1.77 1.831l-.055.001-29.859.062c-1.01.002-1.83-.814-1.832-1.824-.002-.992.786-1.8 1.77-1.831l.054-.001 29.86-.062zm-26.694-7.657c-.991 0-1.798-.79-1.827-1.774v-.054l-.001-12.035-.177.13c-.799.586-1.916.428-2.521-.348l-.034-.044c-.586-.8-.428-1.916.348-2.522l.044-.034 15.263-11.199c.627-.46 1.473-.472 2.112-.036l.05.036 15.263 11.2c.814.596.99 1.74.393 2.555-.586.798-1.7.982-2.51.424l-.046-.032-.065-.048v11.953c0 .992-.79 1.799-1.774 1.827l-.054.001H24.693zM36.87 25.017L26.521 32.61V45.5h5.146v-8.346c0-.992.79-1.799 1.775-1.827l.054-.001h6.859c.991 0 1.799.79 1.827 1.774v8.4h5.147V32.693l-10.46-7.676zm1.658 13.965h-3.203V45.5h3.202v-6.518z" transform="translate(-509.000000, -800.000000) translate(509.000000, 800.000000)"/>
                <path fill="#FFF" d="M78.813 3.25L59.313 3.25 59.313 22.75 78.813 22.75z" transform="translate(-509.000000, -800.000000) translate(509.000000, 800.000000)"/>
                <path fill="#C72528" d="M73.938 8.125L73.938 17.875 64.188 17.875 64.188 8.125z" transform="translate(-509.000000, -800.000000) translate(509.000000, 800.000000)"/>
            </g>
        </g>
    </g>
</svg>
