<svg xmlns="http://www.w3.org/2000/svg" width="104" height="104" viewBox="0 0 104 104">
    <g fill="none" fill-rule="evenodd">
        <g fill-rule="nonzero">
            <g>
                <path fill="#343534" d="M45.297 12.797c2.72 0 5.141 1.272 6.703 3.254 1.562-1.982 3.984-3.254 6.703-3.254h1.117c4.768 0 8.633 3.865 8.633 8.633 0 1.943-.642 3.737-1.726 5.18h12.289c3.814 0 6.906 3.091 6.906 6.906v3.25c0 1.882-1.422 3.432-3.25 3.634v16.989l9.726 1.47c2.345.353 3.987 2.47 3.785 4.8l-.023.212-.01.073c-.142.935-.575 1.8-1.24 2.473l-8.026 8.13 1.894 11.474c.398 2.41-1.214 4.689-3.609 5.124l-.073.013c-.984.162-1.994-.01-2.87-.488l-9.71-5.304-9.71 5.304c-2.145 1.172-4.826.403-6.028-1.713l-.037-.066c-.478-.875-.65-1.886-.487-2.87l.518-3.146H27.075c-2.1-.037-3.79-1.75-3.79-3.86V40.423h-1.55c-1.955 0-3.55-1.533-3.652-3.462l-.005-.194v-3.25c0-3.815 3.092-6.907 6.906-6.907h12.29c-1.085-1.442-1.727-3.236-1.727-5.18 0-4.767 3.865-8.632 8.633-8.632h1.117zm27.567 35.285c-.405-.193-.89-.02-1.082.385L66.238 60.14c-.116.245-.346.415-.613.455l-12.446 1.88c-.17.025-.327.104-.45.225-.319.315-.322.83-.007 1.149l9.045 9.162c.183.185.266.446.224.703l-2.13 12.903c-.03.18.002.363.089.522.215.394.708.539 1.102.324l11.074-6.05c.243-.133.536-.133.78 0l11.073 6.05c.16.087.343.118.522.088.443-.073.742-.49.67-.934l-2.13-12.903c-.043-.257.04-.518.223-.703l9.045-9.162c.12-.122.2-.28.225-.45.067-.443-.238-.857-.682-.924l-12.446-1.88c-.267-.04-.497-.21-.613-.455L73.25 48.467c-.08-.169-.217-.305-.386-.385zm-30.919-7.66H26.94v38.594l.002.023c.012.101.098.18.202.18l16.426-.001V40.523h-1.625v-.101zm14.631 0h-9.35v38.796h10.15l.771-4.671-8.027-8.13c-1.715-1.738-1.716-4.525-.016-6.263l.057-.057c.672-.664 1.538-1.098 2.472-1.239l4.032-.61-.089-17.826zm22.44 0H61.85v.101h-1.618l.086 17.174 3.265-.492 4.895-10.306c1.059-2.23 3.724-3.179 5.954-2.12.93.442 1.678 1.19 2.12 2.12l2.462 5.186V40.422zm-37.07-10.157H24.983c-1.795 0-3.25 1.456-3.25 3.25v3.25h20.211v-6.5zm16.25 0H45.6v6.5h12.594v-6.5zm20.82 0H61.85v6.5h20.415v-3.25c0-1.794-1.455-3.25-3.25-3.25zM59.82 16.454h-1.117c-2.692 0-4.875 2.183-4.875 4.875v5.078h5.992c2.749 0 4.977-2.228 4.977-4.976 0-2.749-2.228-4.977-4.977-4.977zm-14.523 0H44.18c-2.749 0-4.977 2.228-4.977 4.977 0 2.748 2.228 4.976 4.977 4.976h5.992v-5.078c0-2.692-2.183-4.875-4.875-4.875z" transform="translate(-1079.000000, -800.000000) translate(1079.000000, 800.000000)"/>
                <path fill="#FFF" d="M34.938 49.969L15.438 49.969 15.438 67.844 34.938 67.844z" transform="translate(-1079.000000, -800.000000) translate(1079.000000, 800.000000)"/>
                <path fill="#C72528" d="M30.063 54.031L30.063 63.781 20.313 63.781 20.313 54.031z" transform="translate(-1079.000000, -800.000000) translate(1079.000000, 800.000000)"/>
            </g>
        </g>
    </g>
</svg>
