<svg width="38" height="22" viewBox="0 0 38 22" fill="none" xmlns="http://www.w3.org/2000/svg">
<path d="M1.22217 1H36.7777V3.26756C36.1135 3.61337 35.6666 4.25972 35.6666 5C35.6666 5.74028 36.1135 6.38663 36.7777 6.73244V9.26756C36.1135 9.61337 35.6666 10.2597 35.6666 11C35.6666 11.7403 36.1135 12.3866 36.7777 12.7324V15.2676C36.1135 15.6134 35.6666 16.2597 35.6666 17C35.6666 17.7403 36.1135 18.3866 36.7777 18.7324V21H1.22217V18.7324C1.88639 18.3866 2.33328 17.7403 2.33328 17C2.33328 16.2597 1.88639 15.6134 1.22217 15.2676V12.7324C1.88639 12.3866 2.33328 11.7403 2.33328 11C2.33328 10.2597 1.88639 9.61337 1.22217 9.26756V6.73244C1.88639 6.38663 2.33328 5.74028 2.33328 5C2.33328 4.25972 1.88639 3.61337 1.22217 3.26756V1Z" stroke="#C72528"/>
</svg>
